<?xml version="1.0" encoding="UTF-8" standalone="no"?>
<svg
   xmlns:dc="http://purl.org/dc/elements/1.1/"
   xmlns:cc="http://creativecommons.org/ns#"
   xmlns:rdf="http://www.w3.org/1999/02/22-rdf-syntax-ns#"
   xmlns:svg="http://www.w3.org/2000/svg"
   xmlns="http://www.w3.org/2000/svg"
   xmlns:sodipodi="http://sodipodi.sourceforge.net/DTD/sodipodi-0.dtd"
   xmlns:inkscape="http://www.inkscape.org/namespaces/inkscape"
   viewBox="0 0 24 24"
   enable-background="new 0 0 24 24"
   version="1.1"
   id="svg4"
   sodipodi:docname="disconnected.svg"
   inkscape:version="0.92.2 5c3e80d, 2017-08-06">
  <metadata
     id="metadata10">
    <rdf:RDF>
      <cc:Work
         rdf:about="">
        <dc:format>image/svg+xml</dc:format>
        <dc:type
           rdf:resource="http://purl.org/dc/dcmitype/StillImage" />
      </cc:Work>
    </rdf:RDF>
  </metadata>
  <defs
     id="defs8" />
  <sodipodi:namedview
     pagecolor="#ffffff"
     bordercolor="#666666"
     borderopacity="1"
     objecttolerance="10"
     gridtolerance="10"
     guidetolerance="10"
     inkscape:pageopacity="0"
     inkscape:pageshadow="2"
     inkscape:window-width="640"
     inkscape:window-height="480"
     id="namedview6"
     showgrid="false"
     inkscape:zoom="9.8333333"
     inkscape:cx="12"
     inkscape:cy="12"
     inkscape:window-x="0"
     inkscape:window-y="0"
     inkscape:window-maximized="0"
     inkscape:current-layer="svg4" />
  <path
     style="text-indent:0;text-align:start;line-height:normal;text-transform:none;block-progression:tb;-inkscape-font-specification:Bitstream Vera Sans;fill:#ff0000"
     d="M 14.8125 2 C 14.3125 2 13.80625 2.19375 13.40625 2.59375 L 11.90625 4.09375 L 10.90625 3.09375 L 9.5 4.5 L 11.8125 6.8125 L 9.1875 9.40625 L 10.59375 10.8125 L 13.1875 8.1875 L 15.8125 10.8125 L 13.1875 13.40625 L 14.59375 14.8125 L 17.1875 12.1875 L 19.5 14.5 L 20.90625 13.09375 L 19.90625 12.09375 L 21.40625 10.59375 C 22.20625 9.79375 22.20625 8.6125 21.40625 7.8125 L 19.5 5.90625 L 22 3.40625 L 20.59375 2 L 18.09375 4.5 L 16.1875 2.59375 C 15.7875 2.19375 15.3125 2 14.8125 2 z M 4.40625 9.59375 L 3 11 L 4 12 L 2.59375 13.40625 C 1.79375 14.20625 1.79375 15.3875 2.59375 16.1875 L 4.5 18.09375 L 2 20.59375 L 3.40625 22 L 5.90625 19.5 L 7.8125 21.40625 C 8.6125 22.20625 9.79375 22.20625 10.59375 21.40625 L 12 20 L 13 21 L 14.40625 19.59375 L 4.40625 9.59375 z"
     id="path2" />
</svg>
